<svg version="1.1" id="Layer_1" xmlns="http://www.w3.org/2000/svg" xmlns:xlink="http://www.w3.org/1999/xlink" x="0px" y="0px"
                     width="400px" height="520px" viewBox="-100 -20 300 650" xml:space="preserve">
                    <desc  style="-webkit-tap-highlight-color: rgba(0, 0, 0, 0);">Created with Raphaël 2.0.0</desc>
                    <path fill="{{ctrl.cale.cala1.color}}" stroke="#666666" stroke-linejoin="round" d="M75.175,179.09l11.564-3.855v-9.636l9.636-5.782l5.782,1.927
	l5.782-5.782h1.927l7.709-26.982l9.636-1.927l-7.709-13.491l-7.709-3.855l3.855-5.782l-9.636-13.491l5.782-1.927l-9.636-9.636
	l1.927-21.2l-5.782-3.855l-5.782,3.855l-7.709,3.855l-3.855,1.927l-5.782-11.564l1.927-9.636l-3.855-5.782l-3.855,3.855
	l-9.636-3.855l-7.709,5.782l-1.927-3.855l-9.636-3.855l-13.491,7.709l1.927,15.418l1.927,19.273l3.855,13.491l3.855,21.2
	l7.709,9.636v11.564l3.855,11.564h7.709l5.782,7.709l3.855,13.491L75.175,179.09z"/>
                    <path fill-opacity="0" d="M75.175,179.09l11.564-3.855v-9.636l9.636-5.782l5.782,1.927l5.782-5.782l0.126-0.884l1.801-12.607
	l7.709-13.491l1.927-15.418l-7.709-3.855l3.855-5.782l-9.636-13.491l5.782-1.927l-9.636-9.636l1.927-21.2l-5.782-3.855l-5.782,3.855
	l-7.709,3.855l-3.855,1.927l-5.782-11.564l1.927-9.636l-3.855-5.782l-3.855,3.855l-9.636-3.855l-7.709,5.782l-1.927-3.855
	l-9.636-3.855l-13.491,7.709l1.927,15.418l1.927,19.273l3.855,13.491l3.855,21.2l7.709,9.636v11.564l3.855,11.564h7.709l5.782,7.709
	l3.855,13.491L75.175,179.09z"/>
                    <path fill="{{ctrl.cale.cala2.color}}" stroke="#666666" stroke-linejoin="round" d="M75.175,179.09l11.564-3.855v-9.636l9.636-5.782l5.782,1.927
	l5.782-5.782h1.927l11.564,1.927l3.855-5.782l9.636,9.636l3.855,9.636l3.855,7.709l-3.855,9.636h-7.709l-1.927,3.855v7.709v11.564
	l9.636,5.782l7.709-1.927l7.709,7.709l3.855-1.927l5.782,3.855l-1.927,3.855h-1.927l-1.927,3.855l-3.855-1.927l-5.782,3.855
	l-5.782,1.927l-1.927,5.782l-3.855,1.927l-1.927-1.927l-3.855,1.927l-1.927,5.782l-1.927,7.709l-3.855,7.709l-9.636-3.855
	l-11.564,1.927l-9.636,1.927l-3.855-9.636l-1.927-13.491l-5.782-11.564l1.927-3.855v-9.636v-13.491L75.175,179.09z"/>
                    <path fill-opacity="0" d="M75.175,179.09l11.564-3.855v-9.636l9.636-5.782l5.782,1.927l5.782-5.782h1.927l11.564,1.927l3.855-5.782
	l9.636,9.636l3.855,9.636l3.855,7.709l-3.855,9.636h-7.709l-1.927,3.855v7.709v11.564l9.636,5.782l7.709-1.927l7.709,7.709
	l3.855-1.927l5.782,3.855l-1.593,1.166l-2.586,0.47l-1.602,0.291l-3.855,3.855l-5.782,3.855l-5.782,1.927l-1.927,5.782l-3.855,1.927
	l-1.927-1.927l-3.855,1.927l-1.927,5.782l-1.927,7.709l-3.855,7.709l-9.636-3.855l-11.564,1.927l-9.636,1.927l-3.855-9.636
	l-1.927-13.491l-5.782-11.564l1.927-3.855v-9.636v-13.491L75.175,179.09z"/>
                    <path fill="{{ctrl.cale.cala3.color}}" stroke="#666666" stroke-linejoin="round" d="M158.048,233.054l-3.855-1.927l-5.782,3.855l-5.782,1.927
	l-1.927,5.782l-3.855,1.927l-1.927-1.927l-3.855,1.927l-1.927,5.782l-1.927,7.709l-3.855,7.709l-9.636-3.855l-11.564,1.927
	l-9.636,1.927l3.855,1.927l1.927,5.782l3.855,5.782l5.782,3.855l3.855,1.927l-1.927,19.273l-1.927,15.418l-9.636,7.709
	l-11.564,3.855l-9.636-3.855l-11.564,3.855l-3.855,9.636L50.12,342.91l-9.636,11.564l7.709,7.709l7.709,7.709l3.855,7.709
	l11.564-1.927l1.927,3.855l17.346-9.636l9.636,5.782l7.709,7.709h9.636l15.418-32.764l7.709-34.691l-13.491-13.491l5.782-13.491
	l3.855-26.982l19.273-3.855L158.048,233.054z"/>
                    <path fill-opacity="0" d="M154.194,254.255v-23.127l-5.782,3.855l-5.782,1.927l-1.927,5.782l-3.855,1.927l-1.927-1.927l-3.855,1.927
	l-1.927,5.782l-1.927,7.709l-3.855,7.709l-9.636-3.855l-11.564,1.927l-9.636,1.927l3.855,1.927l1.927,5.782l3.855,5.782l5.782,3.855
	l3.855,1.927l-1.927,19.273l-1.927,15.418l-9.636,7.709l-11.564,3.855l-9.636-3.855l-11.564,3.855l-3.855,9.636L50.12,342.91
	l-9.636,11.564l7.709,7.709l7.709,7.709l3.855,7.709l11.564-1.927l1.927,3.855l17.346-9.636l9.636,5.782l7.709,7.709h10.511
	l-0.875-5.782l9.636-25.055l-1.927-1.927l5.782-40.473L121.43,292.8l7.709-5.782l1.927-19.273l1.927-7.709h7.709l1.927,1.927
	L154.194,254.255z"/>
                    <path fill="{{ctrl.cale.cala4.color}}" stroke="#666666" stroke-linejoin="round" d="M71.32,375.673l1.927,3.855l17.346-9.636l9.636,5.782l7.709,7.709
	h9.636h1.927l1.927,7.709l-9.636,3.855l-9.636,3.855l5.782,7.709l-3.855,3.855l-1.927,7.709l-5.782,7.709l-9.636,3.855l-1.927,5.782
	l-9.636,5.782l-5.782,11.564l-9.636,1.927l-3.855,1.927l-5.782,5.782l3.855,9.636l-13.491,7.709l-5.782,3.855l-9.636,21.2
	l-3.855,1.927l-9.636-17.346l1.927-3.855l-3.855-9.636l5.782-13.491l-1.927-13.491l-1.927-5.782l17.346-7.709h7.709l7.709-11.564
	l-3.855-11.564l9.636-3.855l1.927-13.491l7.709-17.346L71.32,375.673z"/>
                    <path fill-opacity="0" d="M71.32,375.673l1.927,3.855l17.346-9.636l9.636,5.782l7.709,7.709h9.636h1.927l1.927,7.709l-9.636,3.855
	l-9.636,3.855l5.782,7.709l-3.855,3.855l-1.927,7.709l-5.782,7.709l-9.636,3.855l-1.927,5.782l-9.636,5.782l-5.782,11.564
	l-9.636,1.927l-3.855,1.927l-5.782,5.782l3.855,9.636l-13.491,7.709l-5.782,3.855l-9.636,21.2l-3.855,1.927l-9.636-17.346
	l1.927-3.855l-3.855-9.636l5.782-13.491l-1.927-13.491l-1.927-5.782l17.346-7.709h7.709l7.709-11.564l-3.855-11.564l9.636-3.855
	l1.927-13.491l7.709-17.346L71.32,375.673z"/>
                    <path fill="{{ctrl.cale.cala5.color}}" stroke="#666666" stroke-linejoin="round" d="M109.866,142.472l7.709-13.491l1.927-15.418l-7.709-3.855
	l3.855-5.782l-9.636-13.491l5.782-1.927l-9.636-9.636l1.927-21.2l1.927,3.855l3.855-5.782l1.927-1.927l5.782-1.927h5.782
	l5.782,7.709l5.782,1.927l-3.855-7.709V44.18l3.855-9.636l5.782-15.418l3.855-13.491l9.636,1.927h3.855l3.855,1.927l7.709-1.927
	h7.709l-1.927,11.564v11.564v11.564l1.927,7.709L165.757,65.38l-9.636,15.418l-1.927,9.636l5.782,5.782l9.636,19.273l15.418,3.855
	l11.564,3.855l7.709-1.927l11.564,13.491l13.491,5.782l13.491,9.636l7.709,1.927l-13.491,7.709v11.564h-7.709l-1.927,3.855
	l-11.564,9.636l-11.564-3.855l-9.636,7.709l5.782,7.709l3.855,21.2L159.975,229.2h1.927l1.927-3.855l-5.782-3.855l-3.855,1.927
	l-7.709-7.709l-7.709,1.927l-9.636-5.782V200.29v-7.709l1.927-3.855h7.709l3.855-9.636l-3.855-7.709l-3.855-9.636l-9.636-9.636
	l-3.855,5.782l-13.491-1.927L109.866,142.472z"/>
                    <path fill-opacity="0" d="M109.866,142.472l7.709-13.491l1.927-15.418l-7.709-3.855l3.855-5.782l-9.636-13.491l5.782-1.927
	l-9.636-9.636l1.927-21.2l1.927,3.855l3.855-5.782l1.927-1.927l5.782-1.927h5.782l5.782,7.709l5.782,1.927l-3.855-7.709V44.18
	l3.855-9.636l5.782-15.418l3.855-13.491l9.636,1.927h3.855l3.855,1.927l7.709-1.927h7.709l-1.927,11.564v11.564v11.564l1.927,7.709
	L165.757,65.38l-9.636,15.418l-1.927,9.636l5.782,5.782l9.636,19.273l15.418,3.855l11.564,3.855l7.709-1.927l11.564,13.491
	l13.491,5.782l13.491,9.636l7.709,1.927l-13.491,7.709v11.564h-7.709l-1.927,3.855l-11.564,9.636l-11.564-3.855l-9.636,7.709
	l5.782,7.709l3.855,21.2L159.975,229.2h1.927l1.927-3.855l-5.782-3.855l-3.855,1.927l-7.709-7.709l-7.709,1.927l-9.636-5.782V200.29
	v-7.709l1.927-3.855h7.709l3.855-9.636l-3.855-7.709l-3.855-9.636l-9.636-9.636l-3.855,5.782l-13.491-1.927L109.866,142.472z"/>
                    <path fill="{{ctrl.cale.cala6.color}}" stroke="#666666" stroke-linejoin="round" d="M179.248,223.418l1.927,1.927l5.782,5.782l13.491,9.636
	l21.2,32.764l5.782,3.855l0,0l11.564,3.855l7.709,5.782l15.418-1.927l19.273-7.709v-17.346l-13.491-11.564l-1.927-9.636
	l5.782-19.273l-1.927-7.709l-3.855-13.491l1.927-11.564l5.782-15.418l-9.636-3.855l-9.636-7.709l-3.855-7.709l-13.491,7.709v11.564
	h-7.709l-1.927,3.855l-11.564,9.636l-11.564-3.855l-9.636,7.709l5.782,7.709l3.855,21.2L179.248,223.418z"/>
                    <path fill-opacity="0" d="M179.248,223.418l1.927,1.927l5.782,5.782l13.491,9.636l21.2,32.764l5.782,3.855l0,0l11.564,3.855
	l7.709,5.782l15.418-1.927l19.273-7.709v-17.346l-13.491-11.564l-1.927-9.636l5.782-19.273l-1.927-7.709l-3.855-13.491l1.927-11.564
	l5.782-15.418l-9.636-3.855l-9.636-7.709l-3.855-7.709l-13.491,7.709v11.564h-7.709l-1.927,3.855l-11.564,9.636l-11.564-3.855
	l-9.636,7.709l5.782,7.709l3.855,21.2L179.248,223.418z"/>
                    <path fill="{{ctrl.cale.cala7.color}}" stroke="#666666" stroke-linejoin="round" d="M179.248,223.418l1.927,1.927l5.782,5.782l13.491,9.636
	l21.2,32.764l5.782,3.855l5.782,1.927l-7.709,1.927l-5.782,1.927l-7.709,5.782l-7.709,1.927l-3.855,3.855l-5.782,7.709l-9.636,1.927
	l-5.782,3.855v3.855l-5.782,9.636l-3.855,5.782l3.855,7.709l1.927,11.564v11.564l1.927,30.837l-1.927,5.782l-7.709-7.709
	l-3.855-3.855l-11.564-5.782l-13.491-3.855l7.709-7.709l-21.2-15.418l5.782-40.473L121.43,292.8l7.709-5.782l1.927-19.273
	l1.927-7.709h3.855h3.855l1.927,1.927l5.782-3.855l5.782-3.855v-15.418v-7.709l3.855-3.855L179.248,223.418z"/>
                    <path fill-opacity="0" d="M179.248,223.418l1.927,1.927l5.782,5.782l13.491,9.636l21.2,32.764l5.782,3.855l5.782,1.927l-7.709,1.927
	l-5.782,1.927l-7.709,5.782l-7.709,1.927l-3.855,3.855l-5.782,7.709l-9.636,1.927l-5.782,3.855v3.855l-5.782,9.636l-3.855,5.782
	l3.855,7.709l1.927,11.564v11.564l1.927,30.837l-1.927,5.782l-7.709-7.709l-3.855-3.855l-11.564-5.782l-13.491-3.855l7.709-7.709
	l-21.2-15.418l5.782-40.473L121.43,292.8l7.709-5.782l1.927-19.273l1.927-7.709h3.855h3.855l1.927,1.927l5.782-3.855l5.782-3.855
	v-15.418v-7.709l3.855-3.855L179.248,223.418z"/>
                    <path fill="{{ctrl.cale.cala8.color}}" stroke="#666666" stroke-linejoin="round" d="M127.212,352.546l-9.636,25.055l3.855,13.491l-9.636,3.855
	l-9.636,3.855l5.782,7.709l-3.855,3.855l-1.927,7.709l-5.782,7.709l-9.636,3.855l-1.927,5.782l-9.636,5.782l-5.782,11.564
	l-9.636,1.927l-3.855,1.927l-5.782,5.782l3.855,9.636l-13.491,7.709l-5.782,3.855l-9.636,21.2l-3.855,1.927l0,0l5.782,7.709
	l11.564,1.927h21.2h19.273l15.418-3.855l13.491-46.255l26.982-38.546l23.127-3.855l25.055-28.909l-5.782-11.564l-1.927,1.927
	l-9.636-1.927l-7.709-3.855l-13.491-5.782l5.782-5.782L127.212,352.546z"/>
                    <path fill-opacity="0" d="M127.212,352.546l-9.636,25.055l3.855,13.491l-9.636,3.855l-9.636,3.855l5.782,7.709l-3.855,3.855
	l-1.927,7.709l-5.782,7.709l-9.636,3.855l-1.927,5.782l-9.636,5.782l-5.782,11.564l-9.636,1.927l-3.855,1.927l-5.782,5.782
	l3.855,9.636l-13.491,7.709l-5.782,3.855l-9.636,21.2l-3.855,1.927l0,0l5.782,7.709l11.564,1.927h21.2h19.273l15.418-3.855
	l13.491-46.255l26.982-38.546l23.127-3.855l25.055-28.909l-5.782-11.564l-1.927,1.927l-9.636-1.927l-7.709-3.855l-13.491-5.782
	l5.782-5.782L127.212,352.546z"/>
                </svg>