<?xml version="1.0" encoding="utf-8"?>
<!-- Generator: Adobe Illustrator 17.0.0, SVG Export Plug-In . SVG Version: 6.00 Build 0)  -->
<!DOCTYPE svg PUBLIC "-//W3C//DTD SVG 1.1//EN" "http://www.w3.org/Graphics/SVG/1.1/DTD/svg11.dtd">
<svg version="1.1" id="Layer_1" xmlns="http://www.w3.org/2000/svg" xmlns:xlink="http://www.w3.org/1999/xlink" x="0px" y="0px"
	 width="217.398px" height="408.585px" viewBox="67.718 0.508 217.398 408.585"
	 enable-background="new 67.718 0.508 217.398 408.585" xml:space="preserve">
<desc  style="-webkit-tap-highlight-color: rgba(0, 0, 0, 0);">Created with Raphaël 2.0.0</desc>
<path id="cala1" fill="{{ctrl.cale.tomorrow.cala1.color}}" d="M120.14,139.272l9.251-3.084v-7.709l7.709-4.626l4.626,1.542l4.626-4.626h1.542l6.167-21.586l7.709-1.542
	l-6.167-10.793l-6.167-3.084l3.084-4.626l-7.709-10.793l4.626-1.542l-7.709-7.709l1.542-16.96l-4.626-3.084l-4.626,3.084
	l-6.167,3.084l-3.084,1.542l-4.626-9.251l1.542-7.709l-3.084-4.626l-3.084,3.084l-7.709-3.084l-6.167,4.626l-1.542-3.084
	l-7.709-3.084l-10.793,6.167l1.542,12.334l1.542,15.418l3.084,10.793l3.084,16.96l6.167,7.709v9.251l3.084,9.251h6.167l4.626,6.167
	l3.084,10.793L120.14,139.272z"/>
<path fill-opacity="0" d="M120.14,139.272l9.251-3.084v-7.709l7.709-4.626l4.626,1.542l4.626-4.626l0.101-0.707l1.441-10.086
	l6.167-10.793l1.542-12.334l-6.167-3.084l3.084-4.626l-7.709-10.793l4.626-1.542l-7.709-7.709l1.542-16.96l-4.626-3.084
	l-4.626,3.084l-6.167,3.084l-3.084,1.542l-4.626-9.251l1.542-7.709l-3.084-4.626l-3.084,3.084l-7.709-3.084l-6.167,4.626
	l-1.542-3.084l-7.709-3.084l-10.793,6.167l1.542,12.334l1.542,15.418l3.084,10.793l3.084,16.96l6.167,7.709v9.251l3.084,9.251h6.167
	l4.626,6.167l3.084,10.793L120.14,139.272z"/>
<path id="cala2" fill="{{ctrl.cale.tomorrow.cala2.color}}" d="M120.14,139.272l9.251-3.084v-7.709l7.709-4.626l4.626,1.542l4.626-4.626h1.542l9.251,1.542l3.084-4.626l7.709,7.709
	l3.084,7.709l3.084,6.167l-3.084,7.709h-6.167l-1.542,3.084v6.167v9.251l7.709,4.626l6.167-1.542l6.167,6.167l3.084-1.542
	l4.626,3.084l-1.542,3.084h-1.542l-1.542,3.084l-3.084-1.542l-4.626,3.084l-4.626,1.542l-1.542,4.626l-3.084,1.542l-1.542-1.542
	l-3.084,1.542l-1.542,4.626l-1.542,6.167l-3.084,6.167l-7.709-3.084l-9.251,1.542l-7.709,1.542l-3.084-7.709l-1.542-10.793
	l-4.626-9.251l1.542-3.084v-7.709v-10.793L120.14,139.272z"/>
<path fill-opacity="0" d="M120.14,139.272l9.251-3.084v-7.709l7.709-4.626l4.626,1.542l4.626-4.626h1.542l9.251,1.542l3.084-4.626
	l7.709,7.709l3.084,7.709l3.084,6.167l-3.084,7.709h-6.167l-1.542,3.084v6.167v9.251l7.709,4.626l6.167-1.542l6.167,6.167
	l3.084-1.542l4.626,3.084l-1.274,0.933l-2.069,0.376l-1.282,0.233l-3.084,3.084l-4.626,3.084l-4.626,1.542l-1.542,4.626
	l-3.084,1.542l-1.542-1.542l-3.084,1.542l-1.542,4.626l-1.542,6.167l-3.084,6.167l-7.709-3.084l-9.251,1.542l-7.709,1.542
	l-3.084-7.709l-1.542-10.793l-4.626-9.251l1.542-3.084v-7.709v-10.793L120.14,139.272z"/>
<path id="cala3" fill="{{ctrl.cale.tomorrow.cala3.color}}" d="M186.438,182.443l-3.084-1.542l-4.626,3.084l-4.626,1.542l-1.542,4.626l-3.084,1.542l-1.542-1.542l-3.084,1.542
	l-1.542,4.626l-1.542,6.167l-3.084,6.167l-7.709-3.084l-9.251,1.542l-7.709,1.542l3.084,1.542l1.542,4.626l3.084,4.626l4.626,3.084
	l3.084,1.542l-1.542,15.418l-1.542,12.334l-7.709,6.167l-9.251,3.084l-7.709-3.084l-9.251,3.084l-3.084,7.709l-9.252,1.543
	l-7.709,9.251l6.167,6.167l6.167,6.167l3.084,6.167l9.251-1.542l1.542,3.084l13.877-7.709l7.709,4.626l6.167,6.167h7.709
	l12.334-26.211l6.167-27.753l-10.793-10.793l4.626-10.793l3.084-21.586l15.418-3.084L186.438,182.443z"/>
<path fill-opacity="0" d="M183.355,199.404v-18.502l-4.626,3.084l-4.626,1.542l-1.542,4.626l-3.084,1.542l-1.542-1.542l-3.084,1.542
	l-1.542,4.626l-1.542,6.167l-3.084,6.167l-7.709-3.084l-9.251,1.542l-7.709,1.542l3.084,1.542l1.542,4.626l3.084,4.626l4.626,3.084
	l3.084,1.542l-1.542,15.418l-1.542,12.334l-7.709,6.167l-9.251,3.084l-7.709-3.084l-9.251,3.084l-3.084,7.709l-9.253,1.542
	l-7.709,9.251l6.167,6.167l6.167,6.167l3.084,6.167l9.251-1.542l1.542,3.084l13.877-7.709l7.709,4.626l6.167,6.167h8.409l-0.7-4.626
	l7.709-20.044l-1.542-1.542l4.626-32.378l-7.709-13.878l6.167-4.626l1.542-15.418l1.542-6.167h6.167l1.542,1.542L183.355,199.404z"
	/>
<path id="cala4" fill="{{ctrl.cale.tomorrow.cala4.color}}" d="M117.056,296.538l1.542,3.084l13.877-7.709l7.709,4.626l6.167,6.167h7.709h1.542l1.542,6.167l-7.709,3.084l-7.709,3.084
	l4.626,6.167l-3.084,3.084l-1.542,6.167l-4.626,6.167l-7.709,3.084l-1.542,4.626l-7.709,4.626l-4.626,9.251l-7.709,1.542
	l-3.084,1.542l-4.626,4.626l3.084,7.709l-10.793,6.167l-4.626,3.084l-7.709,16.96l-3.084,1.542l-7.709-13.877l1.542-3.084
	l-3.084-7.709l4.626-10.793l-1.542-10.793l-1.542-4.626l13.877-6.167h6.167l6.167-9.251l-3.084-9.251l7.709-3.084l1.542-10.793
	l6.167-13.877L117.056,296.538z"/>
<path fill-opacity="0" d="M117.056,296.538l1.542,3.084l13.877-7.709l7.709,4.626l6.167,6.167h7.709h1.542l1.542,6.167l-7.709,3.084
	l-7.709,3.084l4.626,6.167l-3.084,3.084l-1.542,6.167l-4.626,6.167l-7.709,3.084l-1.542,4.626l-7.709,4.626l-4.626,9.251
	l-7.709,1.542l-3.084,1.542l-4.626,4.626l3.084,7.709l-10.793,6.167l-4.626,3.084l-7.709,16.96l-3.084,1.542l-7.709-13.877
	l1.542-3.084l-3.084-7.709l4.626-10.793l-1.542-10.793l-1.542-4.626l13.877-6.167h6.167l6.167-9.251l-3.084-9.251l7.709-3.084
	l1.542-10.793l6.167-13.877L117.056,296.538z"/>
<path id="cala5" fill="{{ctrl.cale.tomorrow.cala5.color}}" d="M147.893,109.978l6.167-10.793l1.542-12.334l-6.167-3.084l3.084-4.626l-7.709-10.793l4.626-1.542l-7.709-7.709l1.542-16.96
	l1.542,3.084l3.084-4.626l1.542-1.542l4.626-1.542h4.626l4.626,6.167l4.626,1.542l-3.084-6.167v-7.71l3.084-7.709l4.626-12.334
	l3.084-10.793l7.709,1.542h3.084l3.084,1.542l6.167-1.542h6.167l-1.542,9.251v9.251v9.251l1.542,6.167l-9.253,12.334l-7.709,12.334
	l-1.542,7.709l4.626,4.626l7.709,15.418l12.334,3.084l9.251,3.084l6.167-1.542l9.251,10.793l10.793,4.626l10.793,7.709l6.167,1.542
	l-10.793,6.167v9.251h-6.167l-1.542,3.084l-9.251,7.709l-9.251-3.084l-7.709,6.167l4.626,6.167l3.084,16.96l-35.463,9.252h1.542
	l1.542-3.084l-4.626-3.084l-3.084,1.542l-6.167-6.167l-6.167,1.542l-7.709-4.626v-9.25v-6.167l1.542-3.084h6.167l3.084-7.709
	l-3.084-6.167l-3.084-7.709l-7.709-7.709l-3.084,4.626l-10.793-1.542L147.893,109.978z"/>
<path fill-opacity="0" d="M147.893,109.978l6.167-10.793l1.542-12.334l-6.167-3.084l3.084-4.626l-7.709-10.793l4.626-1.542
	l-7.709-7.709l1.542-16.96l1.542,3.084l3.084-4.626l1.542-1.542l4.626-1.542h4.626l4.626,6.167l4.626,1.542l-3.084-6.167v-7.71
	l3.084-7.709l4.626-12.334l3.084-10.793l7.709,1.542h3.084l3.084,1.542l6.167-1.542h6.167l-1.542,9.251v9.251v9.251l1.542,6.167
	l-9.253,12.334l-7.709,12.334l-1.542,7.709l4.626,4.626l7.709,15.418l12.334,3.084l9.251,3.084l6.167-1.542l9.251,10.793
	l10.793,4.626l10.793,7.709l6.167,1.542l-10.793,6.167v9.251h-6.167l-1.542,3.084l-9.251,7.709l-9.251-3.084l-7.709,6.167
	l4.626,6.167l3.084,16.96l-35.463,9.252h1.542l1.542-3.084l-4.626-3.084l-3.084,1.542l-6.167-6.167l-6.167,1.542l-7.709-4.626v-9.25
	v-6.167l1.542-3.084h6.167l3.084-7.709l-3.084-6.167l-3.084-7.709l-7.709-7.709l-3.084,4.626l-10.793-1.542L147.893,109.978z"/>
<path id="cala6" fill="{{ctrl.cale.tomorrow.cala6.color}}" d="M203.398,174.734l1.542,1.542l4.626,4.626l10.793,7.709l16.96,26.211l4.626,3.084l0,0l9.251,3.084l6.167,4.626l12.334-1.542
	l15.418-6.167V204.03l-10.793-9.251l-1.542-7.709l4.626-15.418l-1.542-6.167l-3.084-10.793l1.542-9.251l4.626-12.334l-7.709-3.084
	l-7.709-6.167l-3.084-6.167l-10.793,6.167v9.251h-6.167l-1.542,3.084l-9.251,7.709l-9.251-3.084l-7.709,6.167l4.626,6.167
	l3.084,16.96L203.398,174.734z"/>
<path fill-opacity="0" d="M203.398,174.734l1.542,1.542l4.626,4.626l10.793,7.709l16.96,26.211l4.626,3.084l0,0l9.251,3.084
	l6.167,4.626l12.334-1.542l15.418-6.167V204.03l-10.793-9.251l-1.542-7.709l4.626-15.418l-1.542-6.167l-3.084-10.793l1.542-9.251
	l4.626-12.334l-7.709-3.084l-7.709-6.167l-3.084-6.167l-10.793,6.167v9.251h-6.167l-1.542,3.084l-9.251,7.709l-9.251-3.084
	l-7.709,6.167l4.626,6.167l3.084,16.96L203.398,174.734z"/>
<path id="cala7" fill="{{ctrl.cale.tomorrow.cala7.color}}" d="M203.398,174.734l1.542,1.542l4.626,4.626l10.793,7.709l16.96,26.211l4.626,3.084l4.626,1.542l-6.167,1.542l-4.626,1.542
	l-6.167,4.626l-6.167,1.542l-3.084,3.084l-4.626,6.167l-7.709,1.542l-4.626,3.084v3.084l-4.626,7.709l-3.084,4.626l3.084,6.167
	l1.542,9.251v9.251l1.542,24.67l-1.542,4.626l-6.167-6.167l-3.084-3.084l-9.251-4.626l-10.793-3.084l6.167-6.167l-16.96-12.334
	l4.626-32.378l-7.708-13.877l6.167-4.626l1.542-15.418l1.542-6.167h3.084h3.084l1.542,1.542l4.626-3.084l4.626-3.084v-12.334v-6.167
	l3.084-3.084L203.398,174.734z"/>
<path fill-opacity="0" d="M203.398,174.734l1.542,1.542l4.626,4.626l10.793,7.709l16.96,26.211l4.626,3.084l4.626,1.542
	l-6.167,1.542l-4.626,1.542l-6.167,4.626l-6.167,1.542l-3.084,3.084l-4.626,6.167l-7.709,1.542l-4.626,3.084v3.084l-4.626,7.709
	l-3.084,4.626l3.084,6.167l1.542,9.251v9.251l1.542,24.67l-1.542,4.626l-6.167-6.167l-3.084-3.084l-9.251-4.626l-10.793-3.084
	l6.167-6.167l-16.96-12.334l4.626-32.378l-7.708-13.877l6.167-4.626l1.542-15.418l1.542-6.167h3.084h3.084l1.542,1.542l4.626-3.084
	l4.626-3.084v-12.334v-6.167l3.084-3.084L203.398,174.734z"/>
<path id="cala8" fill="{{ctrl.cale.tomorrow.cala8.color}}" d="M161.77,278.037l-7.709,20.044l3.084,10.793l-7.709,3.084l-7.709,3.084l4.626,6.167l-3.084,3.084l-1.542,6.167l-4.626,6.167
	l-7.709,3.084l-1.542,4.626l-7.709,4.626l-4.626,9.251l-7.709,1.542l-3.084,1.542l-4.626,4.626l3.084,7.709l-10.793,6.167
	l-4.626,3.084l-7.709,16.96l-3.084,1.542l0,0l4.626,6.167l9.251,1.542h16.96h15.418l12.334-3.084l10.793-37.004l21.586-30.837
	l18.502-3.084l20.044-23.127l-4.626-9.251l-1.542,1.542l-7.709-1.542l-6.167-3.084l-10.793-4.626l4.626-4.626L161.77,278.037z"/>
<path fill-opacity="0" d="M161.77,278.037l-7.709,20.044l3.084,10.793l-7.709,3.084l-7.709,3.084l4.626,6.167l-3.084,3.084
	l-1.542,6.167l-4.626,6.167l-7.709,3.084l-1.542,4.626l-7.709,4.626l-4.626,9.251l-7.709,1.542l-3.084,1.542l-4.626,4.626
	l3.084,7.709l-10.793,6.167l-4.626,3.084l-7.709,16.96l-3.084,1.542l0,0l4.626,6.167l9.251,1.542h16.96h15.418l12.334-3.084
	l10.793-37.004l21.586-30.837l18.502-3.084l20.044-23.127l-4.626-9.251l-1.542,1.542l-7.709-1.542l-6.167-3.084l-10.793-4.626
	l4.626-4.626L161.77,278.037z"/>
<text transform="matrix(1 0 0 1 112.0001 84.4)" font-family="'MyriadPro-Bold'" font-size="16">1</text>
<text transform="matrix(1 0 0 1 188.0001 124)" font-family="'MyriadPro-Bold'" font-size="16">5</text>
<text transform="matrix(1 0 0 1 132.0001 364)" font-family="'MyriadPro-Bold'" font-size="16">8</text>
<text transform="matrix(1 0 0 1 188.0001 228)" font-family="'MyriadPro-Bold'" font-size="16">7</text>
<text transform="matrix(1 0 0 1 244.0001 172)" font-family="'MyriadPro-Bold'" font-size="16">6</text>
<text transform="matrix(1 0 0 1 144.0001 180)" font-family="'MyriadPro-Bold'" font-size="16">2</text>
<text transform="matrix(1 0 0 1 132.0001 284)" font-family="'MyriadPro-Bold'" font-size="16">3</text>
<text transform="matrix(1 0 0 1 108.0001 340)" font-family="'MyriadPro-Bold'" font-size="16">4</text>
</svg>
