{
    "accessors": {
        "accessor_10": {
            "bufferView": "bufferView_86",
            "byteOffset": 0,
            "byteStride": 0,
            "componentType": 5123,
            "count": 756,
            "type": "SCALAR"
        },
        "accessor_12": {
            "bufferView": "bufferView_87",
            "byteOffset": 0,
            "byteStride": 12,
            "componentType": 5126,
            "count": 128,
            "max": [
                0.1,
                0.242784,
                0.100104
            ],
            "min": [
                -0.1,
                -0.289017,
                -0.1
            ],
            "type": "VEC3"
        },
        "accessor_22": {
            "bufferView": "bufferView_86",
            "byteOffset": 1512,
            "byteStride": 0,
            "componentType": 5123,
            "count": 1584,
            "type": "SCALAR"
        },
        "accessor_24": {
            "bufferView": "bufferView_87",
            "byteOffset": 1536,
            "byteStride": 12,
            "componentType": 5126,
            "count": 276,
            "max": [
                -0.0012117,
                0.134404,
                -0.430451
            ],
            "min": [
                -0.0066358,
                -0.0363203,
                -0.590364
            ],
            "type": "VEC3"
        },
        "accessor_34": {
            "bufferView": "bufferView_86",
            "byteOffset": 4680,
            "byteStride": 0,
            "componentType": 5123,
            "count": 288,
            "type": "SCALAR"
        },
        "accessor_36": {
            "bufferView": "bufferView_87",
            "byteOffset": 4848,
            "byteStride": 12,
            "componentType": 5126,
            "count": 52,
            "max": [
                -0.006068,
                -0.120396,
                -0.193023
            ],
            "min": [
                -0.0316958,
                -0.133903,
                -0.225807
            ],
            "type": "VEC3"
        },
        "accessor_46": {
            "bufferView": "bufferView_86",
            "byteOffset": 5256,
            "byteStride": 0,
            "componentType": 5123,
            "count": 2166,
            "type": "SCALAR"
        },
        "accessor_48": {
            "bufferView": "bufferView_87",
            "byteOffset": 5472,
            "byteStride": 12,
            "componentType": 5126,
            "count": 373,
            "max": [
                0.473993,
                0.140785,
                0.556517
            ],
            "min": [
                -0.517287,
                0.0659426,
                -0.406504
            ],
            "type": "VEC3"
        },
        "accessor_58": {
            "bufferView": "bufferView_86",
            "byteOffset": 9588,
            "byteStride": 0,
            "componentType": 5123,
            "count": 1512,
            "type": "SCALAR"
        },
        "accessor_60": {
            "bufferView": "bufferView_87",
            "byteOffset": 9948,
            "byteStride": 12,
            "componentType": 5126,
            "count": 256,
            "max": [
                0.103372,
                -0.106845,
                0.184338
            ],
            "min": [
                0.0581119,
                -0.137399,
                0.153709
            ],
            "type": "VEC3"
        },
        "accessor_70": {
            "bufferView": "bufferView_86",
            "byteOffset": 12612,
            "byteStride": 0,
            "componentType": 5123,
            "count": 1512,
            "type": "SCALAR"
        },
        "accessor_72": {
            "bufferView": "bufferView_87",
            "byteOffset": 13020,
            "byteStride": 12,
            "componentType": 5126,
            "count": 256,
            "max": [
                -0.101539,
                -0.106845,
                0.184338
            ],
            "min": [
                -0.146799,
                -0.137399,
                0.153709
            ],
            "type": "VEC3"
        },
        "accessor_82": {
            "bufferView": "bufferView_86",
            "byteOffset": 15636,
            "byteStride": 0,
            "componentType": 5123,
            "count": 10944,
            "type": "SCALAR"
        },
        "accessor_84": {
            "bufferView": "bufferView_87",
            "byteOffset": 16092,
            "byteStride": 12,
            "componentType": 5126,
            "count": 1866,
            "max": [
                0.110701,
                0.134312,
                0.393788
            ],
            "min": [
                -0.178671,
                -0.134097,
                -0.541722
            ],
            "type": "VEC3"
        }
    },
    "animations": {},
    "asset": {
        "generator": "collada2gltf@f276333957743f3a823db04d202ce9abbbfe6a7f",
        "premultipliedAlpha": true,
        "profile": "WebGL 1.0.2",
        "version": 0.8
    },
    "bufferViews": {
        "bufferView_86": {
            "buffer": "Model",
            "byteLength": 37524,
            "byteOffset": 0,
            "target": 34963
        },
        "bufferView_87": {
            "buffer": "Model",
            "byteLength": 38484,
            "byteOffset": 37524,
            "target": 34962
        }
    },
    "buffers": {
        "Model": {
            "byteLength": 76008,
            "type": "arraybuffer",
            "uri": "data:application/octet-stream;base64,"
        }
    },
    "materials": {
        "Scene_Material_fx": {
            "instanceTechnique": {
                "technique": "technique0",
                "values": {
                    "ambient": [
                        0.3,
                        0.3,
                        0.3,
                        0
                    ],
                    "diffuse": [
                        0.7,
                        0.7,
                        0.7,
                        0
                    ],
                    "emission": [
                        0,
                        0,
                        0,
                        1
                    ],
                    "shininess": 50,
                    "specular": [
                        1,
                        1,
                        1,
                        0
                    ]
                }
            },
            "name": "Scene_Material"
        }
    },
    "meshes": {
        "geometries_0": {
            "name": "geometries_0",
            "primitives": [
                {
                    "attributes": {
                        "POSITION": "accessor_12"
                    },
                    "indices": "accessor_10",
                    "material": "Scene_Material_fx",
                    "primitive": 4
                }
            ]
        },
        "geometries_1": {
            "name": "geometries_1",
            "primitives": [
                {
                    "attributes": {
                        "POSITION": "accessor_24"
                    },
                    "indices": "accessor_22",
                    "material": "Scene_Material_fx",
                    "primitive": 4
                }
            ]
        },
        "geometries_2": {
            "name": "geometries_2",
            "primitives": [
                {
                    "attributes": {
                        "POSITION": "accessor_36"
                    },
                    "indices": "accessor_34",
                    "material": "Scene_Material_fx",
                    "primitive": 4
                }
            ]
        },
        "geometries_3": {
            "name": "geometries_3",
            "primitives": [
                {
                    "attributes": {
                        "POSITION": "accessor_48"
                    },
                    "indices": "accessor_46",
                    "material": "Scene_Material_fx",
                    "primitive": 4
                }
            ]
        },
        "geometries_4": {
            "name": "geometries_4",
            "primitives": [
                {
                    "attributes": {
                        "POSITION": "accessor_60"
                    },
                    "indices": "accessor_58",
                    "material": "Scene_Material_fx",
                    "primitive": 4
                }
            ]
        },
        "geometries_5": {
            "name": "geometries_5",
            "primitives": [
                {
                    "attributes": {
                        "POSITION": "accessor_72"
                    },
                    "indices": "accessor_70",
                    "material": "Scene_Material_fx",
                    "primitive": 4
                }
            ]
        },
        "geometries_6": {
            "name": "geometries_6",
            "primitives": [
                {
                    "attributes": {
                        "POSITION": "accessor_84"
                    },
                    "indices": "accessor_82",
                    "material": "Scene_Material_fx",
                    "primitive": 4
                }
            ]
        }
    },
    "nodes": {
        "cylinder26": {
            "children": [],
            "matrix": [
                6.85877e-012,
                0.152768,
                0,
                0,
                -0.0243242,
                1.09208e-012,
                0.000191046,
                0,
                0.00119982,
                -5.38681e-014,
                0.152763,
                0,
                -0.0193044,
                -0.12858,
                -0.222527,
                1
            ],
            "meshes": [
                "geometries_0"
            ],
            "name": "cylinder26"
        },
        "polymsh": {
            "children": [],
            "matrix": [
                1,
                0,
                0,
                0,
                0,
                1,
                0,
                0,
                0,
                0,
                1,
                0,
                0,
                0,
                0,
                1
            ],
            "meshes": [
                "geometries_2"
            ],
            "name": "polymsh"
        },
        "polymsh1": {
            "children": [],
            "matrix": [
                1,
                0,
                0,
                0,
                0,
                1,
                0,
                0,
                0,
                0,
                1,
                0,
                0,
                0,
                0,
                1
            ],
            "meshes": [
                "geometries_1"
            ],
            "name": "polymsh1"
        },
        "polymsh3": {
            "children": [],
            "matrix": [
                1,
                0,
                0,
                0,
                0,
                1,
                0,
                0,
                0,
                0,
                1,
                0,
                0,
                0,
                0,
                1
            ],
            "meshes": [
                "geometries_3"
            ],
            "name": "polymsh3"
        },
        "polymsh4": {
            "children": [],
            "matrix": [
                1,
                0,
                0,
                0,
                0,
                1,
                0,
                0,
                0,
                0,
                1,
                0,
                0,
                0,
                0,
                1
            ],
            "meshes": [
                "geometries_4"
            ],
            "name": "polymsh4"
        },
        "polymsh5": {
            "children": [],
            "matrix": [
                1,
                0,
                0,
                0,
                0,
                1,
                0,
                0,
                0,
                0,
                1,
                0,
                0,
                0,
                0,
                1
            ],
            "meshes": [
                "geometries_5"
            ],
            "name": "polymsh5"
        },
        "polymsh7": {
            "children": [],
            "matrix": [
                1,
                0,
                0,
                0,
                0,
                1,
                0,
                0,
                0,
                0,
                1,
                0,
                0,
                0,
                0,
                1
            ],
            "meshes": [
                "geometries_6"
            ],
            "name": "polymsh7"
        }
    },
    "programs": {
        "program_0": {
            "attributes": [
                "a_position"
            ],
            "fragmentShader": "Model0FS",
            "vertexShader": "Model0VS"
        }
    },
    "scene": "defaultScene",
    "scenes": {
        "defaultScene": {
            "nodes": [
                "cylinder26",
                "polymsh1",
                "polymsh",
                "polymsh3",
                "polymsh4",
                "polymsh5",
                "polymsh7"
            ]
        }
    },
    "shaders": {
        "Model0FS": {
            "type": 35632,
            "uri": "data:text/plain;base64,"
        },
        "Model0VS": {
            "type": 35633,
            "uri": "data:text/plain;base64,"
        }
    },
    "skins": {},
    "techniques": {
        "technique0": {
            "parameters": {
                "ambient": {
                    "type": 35666
                },
                "diffuse": {
                    "type": 35666
                },
                "emission": {
                    "type": 35666
                },
                "modelViewMatrix": {
                    "semantic": "MODELVIEW",
                    "type": 35676
                },
                "position": {
                    "semantic": "POSITION",
                    "type": 35665
                },
                "projectionMatrix": {
                    "semantic": "PROJECTION",
                    "type": 35676
                },
                "shininess": {
                    "type": 5126
                },
                "specular": {
                    "type": 35666
                }
            },
            "pass": "defaultPass",
            "passes": {
                "defaultPass": {
                    "details": {
                        "commonProfile": {
                            "extras": {
                                "doubleSided": false
                            },
                            "lightingModel": "Phong",
                            "parameters": [
                                "diffuse",
                                "emission",
                                "modelViewMatrix",
                                "projectionMatrix",
                                "shininess"
                            ]
                        },
                        "type": "COLLADA-1.4.1/commonProfile"
                    },
                    "instanceProgram": {
                        "attributes": {
                            "a_position": "position"
                        },
                        "program": "program_0",
                        "uniforms": {
                            "u_diffuse": "diffuse",
                            "u_emission": "emission",
                            "u_modelViewMatrix": "modelViewMatrix",
                            "u_projectionMatrix": "projectionMatrix",
                            "u_shininess": "shininess"
                        }
                    },
                    "states": {
                        "enable": [
                            2884,
                            2929
                        ]
                    }
                }
            }
        }
    }
}